<svg width="54" height="30" viewBox="0 0 54 30" fill="none" xmlns="http://www.w3.org/2000/svg">
<rect width="54" height="30" rx="12" fill="#DB3F47"/>
<path fill-rule="evenodd" clip-rule="evenodd" d="M18.4718 6.56793H24.7051V5.61204C24.7051 5.27545 24.98 5.00006 25.3171 5.00006H28.7585C29.0954 5.00006 29.3704 5.27529 29.3704 5.61204V6.56809H35.5277C35.7381 6.56809 35.9097 6.74013 35.9097 6.95042V8.82444H18.0898V6.95026C18.0898 6.73997 18.2616 6.56793 18.4718 6.56793ZM19.5042 9.81858H34.6281C34.9434 9.81858 35.2297 10.0788 35.2012 10.3922L33.9212 24.4268C33.8929 24.7403 33.6624 24.9999 33.3478 24.9999H20.7664C20.4517 24.9999 20.2209 24.7408 20.1929 24.4268L18.9307 10.3922C18.9027 10.0777 19.1886 9.81858 19.5042 9.81858ZM29.3328 11.9984H30.9386V22.629H29.3328V11.9984ZM22.9844 11.9984H24.5903V22.629H22.9844V11.9984ZM26.1582 11.9984H27.7645V22.629H26.1582V11.9984Z" fill="white"/>
</svg>
